PathFileType	4	(X/Y/Z)	s06c0201.trc
DataRate	CameraRate	NumFrames	NumMarkers	Units	OrigDataRate	OrigDataStartFrame	OrigNumFrames
200	200	4	49	mm	200	750	2000
Frame#	Time	racr			lacr			c7			jug			rlel			rdr			llel			ldr			s2			lic			ric			lasi			rasi			rpsi			lpsi			rgt			lgt			rth1			rth2			rth3			rth4			rlfc			rmfc			rsh1			rsh2			rsh3			rsh4			rlmal			rmmal			rcal			rtoe			rmt5			lth1			lth2			lth4			lth3			llfc			lmfc			llmal			lcal			lmt5			lsh1			lsh2			lsh3			lsh4			ltoe			SBIKE			LBIKE			RBIKE			
		X1	Y1	Z1	X2	Y2	Z2	X3	Y3	Z3	X4	Y4	Z4	X5	Y5	Z5	X6	Y6	Z6	X7	Y7	Z7	X8	Y8	Z8	X9	Y9	Z9	X10	Y10	Z10	X11	Y11	Z11	X12	Y12	Z12	X13	Y13	Z13	X14	Y14	Z14	X15	Y15	Z15	X16	Y16	Z16	X17	Y17	Z17	X18	Y18	Z18	X19	Y19	Z19	X20	Y20	Z20	X21	Y21	Z21	X22	Y22	Z22	X23	Y23	Z23	X24	Y24	Z24	X25	Y25	Z25	X26	Y26	Z26	X27	Y27	Z27	X28	Y28	Z28	X29	Y29	Z29	X30	Y30	Z30	X31	Y31	Z31	X32	Y32	Z32	X33	Y33	Z33	X34	Y34	Z34	X35	Y35	Z35	X36	Y36	Z36	X37	Y37	Z37	X38	Y38	Z38	X39	Y39	Z39	X40	Y40	Z40	X41	Y41	Z41	X42	Y42	Z42	X43	Y43	Z43	X44	Y44	Z44	X45	Y45	Z45	X46	Y46	Z46	X47	Y47	Z47	X48	Y48	Z48	X49	Y49	Z49	
750	3.7500	525.738990	1267.988161	-104.486884	535.018716	1235.430972	-406.270435	521.788352	1334.236985	-257.431513	512.308741	1168.632357	-244.996598	485.107179	1040.510160	37.163682	665.023197	941.145410	-57.595633	457.612600	997.765062	-519.210457	653.205201	929.172043	-427.338772	-22.710811	1145.310639	-234.528337	132.948252	1114.307816	-412.363976	121.027668	1136.140027	-78.256057	161.388481	1066.583472	-370.845805	148.076594	1092.253577	-110.195657	11.799688	1192.301625	-214.650531	8.170280	1180.541761	-274.078263	105.312495	1080.779532	-35.249396	104.310222	1027.418685	-430.188806	211.195625	1031.089962	-28.389185	299.962326	1013.142166	-34.327842	364.831926	956.434437	-30.906811	311.823417	1041.443109	-57.444507	430.306771	872.473909	-54.467275	418.041779	846.991118	-165.555228	351.191922	776.367682	-33.323240	300.877458	709.560773	-55.669066	222.717559	669.052256	-57.788307	316.528438	696.375727	-90.879242	151.808797	623.882695	-62.834915	183.031897	606.903397	-152.108629	85.259534	640.842374	-112.651782	268.441638	433.737773	-106.987451	185.419460	489.763758	-39.937303	131.361160	901.474373	-447.415850	186.233275	833.367555	-445.794147	219.652213	848.303133	-441.158190	199.654635	745.666416	-437.080407	226.240552	628.655092	-416.782221	241.785073	615.201996	-301.478338	178.898068	262.173714	-380.496773	112.531978	251.293467	-329.870760	286.046438	161.729890	-410.127643	209.645784	519.704457	-430.694142	221.496750	436.361875	-410.231393	189.026131	355.276261	-403.591926	252.397366	437.990692	-385.620745	373.031831	145.683417	-354.660373	-204.373507	868.464059	-220.965452	-50.254723	79.894691	-420.002541	-50.214081	80.420330	-22.412388	
751	3.7550	525.456270	1267.173642	-103.420142	535.334196	1236.616250	-405.187234	522.201908	1334.377702	-255.917009	512.271661	1168.322475	-243.954770	484.797486	1039.563126	37.779334	664.582830	941.261479	-57.585307	458.952807	998.844560	-519.411015	654.537148	928.521923	-427.965262	-23.415686	1146.360726	-234.240686	133.560291	1115.002188	-413.026564	120.152873	1136.187684	-79.176443	161.245837	1066.703096	-371.857933	147.271463	1092.259504	-111.052453	11.524827	1192.566369	-215.701896	8.095101	1180.830092	-275.102242	105.500808	1082.222537	-36.753369	103.658554	1027.269953	-431.316598	210.758668	1033.915724	-30.170178	300.048648	1016.984413	-35.775156	365.576627	961.452843	-32.149387	311.397303	1045.179354	-59.204758	432.553271	877.718674	-55.915460	420.397015	853.776954	-168.564691	354.964390	781.317663	-34.393582	305.235161	714.023417	-56.532896	227.552328	672.616396	-58.165410	320.860727	700.875526	-91.695306	156.970850	626.365955	-63.077105	188.083179	609.998999	-152.723364	89.597881	641.866255	-113.075713	277.566467	438.939207	-107.173786	193.422305	493.101738	-40.153426	129.763436	900.734836	-448.795042	183.808327	832.400080	-447.707129	217.647464	846.917174	-442.796347	196.841065	744.367972	-438.645499	222.568580	627.408685	-417.560312	238.908074	614.144180	-302.405207	173.096873	261.741076	-380.495749	106.824964	252.200851	-329.720695	278.316747	158.698401	-410.136374	205.332704	518.678846	-431.530695	216.747036	435.319596	-410.874109	183.790937	354.402532	-403.879810	247.639928	436.928355	-386.615974	364.936777	140.804432	-354.609751	-204.385540	868.492508	-220.995550	-50.250155	79.919863	-420.013032	-50.209541	80.484943	-22.407084	
752	3.7600	525.248788	1266.166208	-102.308555	535.556746	1237.671470	-404.097072	522.586216	1334.371534	-254.294944	512.241160	1167.978644	-243.025231	484.437593	1038.602069	38.519856	664.167806	941.346784	-57.649209	460.447447	999.721128	-519.486930	655.947871	927.843955	-428.439217	-22.938002	1145.928186	-236.922490	134.099026	1115.539117	-413.649280	119.211138	1136.043880	-80.052893	160.966471	1066.707040	-372.816499	145.845901	1091.596420	-111.669121	11.258865	1192.782567	-216.663027	8.088596	1181.107756	-276.118602	105.010364	1083.906889	-38.009247	102.999181	1027.197132	-432.507798	210.376907	1036.453011	-31.657480	299.997575	1020.706930	-37.090913	365.417824	966.319402	-32.157463	310.861116	1048.705011	-60.892834	434.459709	883.621847	-57.867334	422.479973	858.623084	-169.736884	358.770211	785.821308	-35.678423	309.488461	717.995148	-57.557889	232.329862	675.685528	-58.667178	325.165184	704.822355	-92.615408	161.987385	628.328577	-63.517631	193.376823	612.480063	-153.144386	94.137338	641.932502	-113.591499	287.191145	443.947388	-107.000781	201.383252	495.983819	-40.282906	128.279598	900.175716	-450.051151	181.908587	831.488431	-449.400167	215.949494	845.790459	-444.425542	194.478588	743.389992	-440.244577	219.563067	626.406512	-418.662074	236.236838	613.237981	-303.331571	167.255977	261.620800	-380.564224	100.955617	253.337365	-329.602539	270.381769	156.141207	-410.010378	201.519592	517.927566	-432.326257	212.278850	434.592242	-411.410682	178.729590	353.920583	-404.078739	243.264791	435.950146	-387.356007	356.614432	136.421267	-354.557533	-204.402289	868.532403	-221.053347	-50.246324	79.956174	-420.005075	-50.258888	80.569177	-22.414178	
753	3.7650	524.961877	1265.038654	-101.061535	535.874144	1238.605267	-402.879821	522.901587	1334.136626	-252.584602	512.105630	1167.380621	-242.075296	483.918197	1037.687371	39.417868	663.828587	941.265293	-57.773447	462.003552	1000.527475	-519.467231	657.313695	927.510642	-428.895716	-23.253466	1146.071355	-238.084224	134.535257	1115.879195	-414.168507	118.299669	1135.910112	-80.889725	160.631129	1066.568961	-373.768223	144.319697	1090.825498	-112.167517	11.019207	1192.958325	-217.652411	8.014117	1181.265057	-277.085682	104.303511	1085.555502	-39.126540	102.272893	1027.113701	-433.636341	209.526010	1038.236997	-33.502963	299.798710	1024.052766	-38.551734	365.272034	971.187067	-32.232508	310.308476	1051.981070	-62.626505	435.911116	889.334070	-58.200128	424.206999	863.407264	-171.155624	362.474802	789.711873	-36.998438	313.674052	721.344305	-58.707813	237.110940	678.139763	-59.356936	329.529740	708.093800	-94.143117	166.803205	629.494710	-64.128789	199.100676	614.251911	-153.693622	98.934457	641.534617	-114.541207	296.570875	448.382522	-106.601494	209.357284	498.412508	-40.346840	126.873635	899.688686	-451.386712	180.277556	830.718851	-451.052201	214.347504	844.947654	-445.958581	192.506714	742.634971	-441.800814	217.092560	625.733334	-419.651255	234.200329	612.706801	-304.120288	161.296831	261.795801	-380.643063	94.924177	254.833915	-329.491647	262.234256	154.138946	-409.910437	198.235968	517.480697	-433.081945	208.172093	434.072929	-411.829626	173.875823	353.764572	-404.282924	239.262326	435.199432	-387.823028	348.111794	132.563823	-354.448743	-204.381947	868.578416	-221.115775	-50.231335	79.957342	-419.987260	-50.245755	80.613445	-22.400100	
